G75*
G70*
%OFA0B0*%
%FSLAX24Y24*%
%IPPOS*%
%LPD*%
%AMOC8*
5,1,8,0,0,1.08239X$1,22.5*
%
%ADD10C,0.0000*%
%ADD11C,0.0050*%
%ADD12C,0.0060*%
%ADD13C,0.0080*%
%ADD14C,0.0070*%
%ADD15C,0.0320*%
%ADD16R,0.1200X0.0300*%
%ADD17C,0.0059*%
D10*
X000150Y000150D02*
X000150Y010634D01*
X010634Y010634D01*
X010634Y000150D01*
X000150Y000150D01*
D11*
X001840Y002195D02*
X001795Y002240D01*
X001840Y002195D02*
X001930Y002195D01*
X001975Y002240D01*
X001975Y002285D01*
X001930Y002330D01*
X001885Y002330D01*
X001930Y002330D02*
X001975Y002375D01*
X001975Y002420D01*
X001930Y002465D01*
X001840Y002465D01*
X001795Y002420D01*
X002090Y002195D02*
X002270Y002465D01*
X002384Y002465D02*
X002384Y002330D01*
X002474Y002375D01*
X002519Y002375D01*
X002564Y002330D01*
X002564Y002240D01*
X002519Y002195D01*
X002429Y002195D01*
X002384Y002240D01*
X002384Y002465D02*
X002564Y002465D01*
X004085Y004163D02*
X004176Y004253D01*
X004085Y004343D01*
X004356Y004343D01*
X004356Y004457D02*
X004176Y004457D01*
X004085Y004548D01*
X004176Y004638D01*
X004356Y004638D01*
X004356Y004752D02*
X004085Y004932D01*
X004085Y005047D02*
X004085Y005227D01*
X004131Y005227D01*
X004311Y005047D01*
X004356Y005047D01*
X004356Y004932D02*
X004085Y004752D01*
X004221Y004638D02*
X004221Y004457D01*
X004356Y004163D02*
X004085Y004163D01*
X004085Y005341D02*
X004221Y005341D01*
X004176Y005431D01*
X004176Y005477D01*
X004221Y005522D01*
X004311Y005522D01*
X004356Y005477D01*
X004356Y005386D01*
X004311Y005341D01*
X004085Y005341D02*
X004085Y005522D01*
X004221Y005636D02*
X004221Y005771D01*
X004266Y005816D01*
X004311Y005816D01*
X004356Y005771D01*
X004356Y005681D01*
X004311Y005636D01*
X004221Y005636D01*
X004131Y005726D01*
X004085Y005816D01*
X003808Y007566D02*
X003718Y007566D01*
X003672Y007611D01*
X003672Y007791D01*
X003718Y007836D01*
X003808Y007836D01*
X003853Y007791D01*
X003853Y007611D02*
X003808Y007566D01*
X003558Y007611D02*
X003558Y007791D01*
X003513Y007836D01*
X003378Y007836D01*
X003378Y007566D01*
X003513Y007566D01*
X003558Y007611D01*
X003263Y007656D02*
X003173Y007566D01*
X003083Y007656D01*
X003083Y007836D01*
X003263Y007836D02*
X003263Y007656D01*
X003457Y008130D02*
X003457Y008445D01*
X003024Y008445D01*
X003024Y010138D01*
X003457Y010138D01*
X003457Y010178D01*
X003457Y010493D01*
X000426Y010493D01*
X000426Y008130D01*
X003457Y008130D01*
X002674Y007791D02*
X002674Y007611D01*
X002629Y007566D01*
X002539Y007566D01*
X002494Y007611D01*
X002674Y007791D01*
X002629Y007836D01*
X002539Y007836D01*
X002494Y007791D01*
X002494Y007611D01*
X002392Y007611D02*
X002392Y007566D01*
X002347Y007566D01*
X002347Y007611D01*
X002392Y007611D01*
X002232Y007791D02*
X002232Y007836D01*
X002052Y007836D01*
X002232Y007791D02*
X002052Y007611D01*
X002052Y007566D01*
X001643Y007701D02*
X001463Y007701D01*
X001053Y007791D02*
X000873Y007611D01*
X000873Y007566D01*
X000771Y007566D02*
X000771Y007611D01*
X000726Y007611D01*
X000726Y007566D01*
X000771Y007566D01*
X000611Y007611D02*
X000566Y007566D01*
X000476Y007566D01*
X000431Y007611D01*
X000611Y007791D01*
X000611Y007611D01*
X000611Y007791D02*
X000566Y007836D01*
X000476Y007836D01*
X000431Y007791D01*
X000431Y007611D01*
X000873Y007836D02*
X001053Y007836D01*
X001053Y007791D01*
X002055Y008947D02*
X002055Y009083D01*
X002100Y009128D01*
X002190Y009128D01*
X002235Y009083D01*
X002235Y008947D01*
X002325Y008947D02*
X002055Y008947D01*
X002055Y009242D02*
X002325Y009242D01*
X002235Y009332D01*
X002325Y009422D01*
X002055Y009422D01*
X002055Y009537D02*
X002055Y009672D01*
X002100Y009717D01*
X002190Y009717D01*
X002235Y009672D01*
X002235Y009537D01*
X002235Y009627D02*
X002325Y009717D01*
X002325Y009537D02*
X002055Y009537D01*
X001567Y009430D02*
X001567Y009193D01*
X000426Y009193D01*
X000426Y009430D02*
X001567Y009430D01*
X004254Y010226D02*
X004434Y010226D01*
X004548Y010226D02*
X004729Y010226D01*
X004638Y010226D02*
X004638Y010496D01*
X004548Y010406D01*
X004254Y010496D02*
X004254Y010226D01*
X005224Y010215D02*
X005404Y010395D01*
X005404Y010440D01*
X005359Y010485D01*
X005269Y010485D01*
X005224Y010440D01*
X005224Y010215D02*
X005404Y010215D01*
X005519Y010215D02*
X005699Y010395D01*
X005699Y010440D01*
X005654Y010485D01*
X005564Y010485D01*
X005519Y010440D01*
X005519Y010215D02*
X005699Y010215D01*
X005814Y010260D02*
X005814Y010395D01*
X005814Y010260D02*
X005859Y010215D01*
X005994Y010215D01*
X005994Y010395D01*
X006108Y010350D02*
X006288Y010350D01*
X006288Y010485D02*
X006288Y010215D01*
X006108Y010215D02*
X006108Y010485D01*
X007794Y008909D02*
X007929Y008909D01*
X007974Y008864D01*
X007974Y008819D01*
X007929Y008774D01*
X007794Y008774D01*
X007794Y008909D02*
X007794Y008638D01*
X007929Y008638D01*
X007974Y008683D01*
X007974Y008728D01*
X007929Y008774D01*
X008089Y008728D02*
X008224Y008728D01*
X008269Y008774D01*
X008269Y008864D01*
X008224Y008909D01*
X008089Y008909D01*
X008089Y008638D01*
X008179Y008728D02*
X008269Y008638D01*
X008384Y008638D02*
X008474Y008638D01*
X008429Y008638D02*
X008429Y008909D01*
X008384Y008909D02*
X008474Y008909D01*
X008580Y008909D02*
X008715Y008909D01*
X008760Y008864D01*
X008760Y008683D01*
X008715Y008638D01*
X008580Y008638D01*
X008580Y008909D01*
X008875Y008864D02*
X008875Y008683D01*
X008920Y008638D01*
X009010Y008638D01*
X009055Y008683D01*
X009055Y008774D01*
X008965Y008774D01*
X009055Y008864D02*
X009010Y008909D01*
X008920Y008909D01*
X008875Y008864D01*
X009169Y008909D02*
X009169Y008638D01*
X009349Y008638D01*
X009259Y008774D02*
X009169Y008774D01*
X009169Y008909D02*
X009349Y008909D01*
X008825Y007128D02*
X008780Y007128D01*
X008780Y006948D01*
X008825Y007128D02*
X009005Y006948D01*
X009050Y006948D01*
X009050Y006833D02*
X009050Y006653D01*
X009050Y006743D02*
X008780Y006743D01*
X008870Y006653D01*
X008870Y006539D02*
X008915Y006494D01*
X008915Y006404D01*
X008870Y006359D01*
X008825Y006359D01*
X008780Y006404D01*
X008780Y006494D01*
X008825Y006539D01*
X008870Y006539D01*
X008915Y006494D02*
X008960Y006539D01*
X009005Y006539D01*
X009050Y006494D01*
X009050Y006404D01*
X009005Y006359D01*
X008960Y006359D01*
X008915Y006404D01*
X008915Y006244D02*
X009005Y006244D01*
X009050Y006199D01*
X009050Y006109D01*
X009005Y006064D01*
X008915Y006064D02*
X008870Y006154D01*
X008870Y006199D01*
X008915Y006244D01*
X008780Y006244D02*
X008780Y006064D01*
X008915Y006064D01*
X009050Y005949D02*
X008780Y005949D01*
X008780Y005769D02*
X009050Y005949D01*
X009050Y005769D02*
X008780Y005769D01*
X008780Y005565D02*
X009050Y005565D01*
X009050Y005475D02*
X009050Y005655D01*
X008870Y005475D02*
X008780Y005565D01*
X009050Y005099D02*
X009050Y004919D01*
X009050Y005009D02*
X008780Y005009D01*
X008870Y004919D01*
X008825Y004805D02*
X008780Y004760D01*
X008780Y004625D01*
X009050Y004625D01*
X009050Y004760D01*
X009005Y004805D01*
X008825Y004805D01*
X007609Y005976D02*
X007519Y005976D01*
X007404Y006021D02*
X007404Y005841D01*
X007269Y005841D01*
X007224Y005886D01*
X007224Y006021D01*
X007110Y006066D02*
X007110Y005886D01*
X007065Y005841D01*
X006975Y005841D01*
X006930Y005886D01*
X007110Y006066D01*
X007065Y006111D01*
X006975Y006111D01*
X006930Y006066D01*
X006930Y005886D01*
X006815Y005886D02*
X006815Y006066D01*
X006635Y005886D01*
X006680Y005841D01*
X006770Y005841D01*
X006815Y005886D01*
X006815Y006066D02*
X006770Y006111D01*
X006680Y006111D01*
X006635Y006066D01*
X006635Y005886D01*
X006521Y005841D02*
X006340Y005841D01*
X006430Y005841D02*
X006430Y006111D01*
X006340Y006021D01*
X006662Y005052D02*
X006617Y005007D01*
X006617Y004827D01*
X006662Y004782D01*
X006752Y004782D01*
X006797Y004827D01*
X006912Y004782D02*
X007092Y004962D01*
X007092Y005007D01*
X007047Y005052D01*
X006957Y005052D01*
X006912Y005007D01*
X006797Y005007D02*
X006752Y005052D01*
X006662Y005052D01*
X006912Y004782D02*
X007092Y004782D01*
X007519Y005841D02*
X007519Y006111D01*
X007699Y006111D01*
X007108Y007325D02*
X006928Y007325D01*
X007018Y007325D02*
X007018Y007595D01*
X006928Y007505D01*
X006813Y007550D02*
X006768Y007595D01*
X006678Y007595D01*
X006633Y007550D01*
X006633Y007370D01*
X006678Y007325D01*
X006768Y007325D01*
X006813Y007370D01*
X006760Y003568D02*
X006580Y003568D01*
X006580Y003433D01*
X006670Y003478D01*
X006715Y003478D01*
X006760Y003433D01*
X006760Y003343D01*
X006715Y003298D01*
X006625Y003298D01*
X006580Y003343D01*
X006465Y003298D02*
X006285Y003298D01*
X006375Y003298D02*
X006375Y003568D01*
X006285Y003478D01*
X006875Y003523D02*
X006875Y003343D01*
X007055Y003523D01*
X007055Y003343D01*
X007010Y003298D01*
X006920Y003298D01*
X006875Y003343D01*
X006875Y003523D02*
X006920Y003568D01*
X007010Y003568D01*
X007055Y003523D01*
X007169Y003478D02*
X007169Y003343D01*
X007214Y003298D01*
X007349Y003298D01*
X007349Y003478D01*
X007464Y003433D02*
X007554Y003433D01*
X007464Y003298D02*
X007464Y003568D01*
X007644Y003568D01*
X008226Y002486D02*
X008181Y002441D01*
X008181Y002261D01*
X008226Y002216D01*
X008316Y002216D01*
X008361Y002261D01*
X008361Y002351D01*
X008271Y002351D01*
X008361Y002441D02*
X008316Y002486D01*
X008226Y002486D01*
X008476Y002486D02*
X008476Y002216D01*
X008656Y002216D02*
X008656Y002486D01*
X008771Y002486D02*
X008906Y002486D01*
X008951Y002441D01*
X008951Y002261D01*
X008906Y002216D01*
X008771Y002216D01*
X008771Y002486D01*
X008656Y002216D02*
X008476Y002486D01*
X009440Y002485D02*
X009440Y002305D01*
X009530Y002214D01*
X009620Y002305D01*
X009620Y002485D01*
X009735Y002440D02*
X009735Y002259D01*
X009780Y002214D01*
X009870Y002214D01*
X009915Y002259D01*
X010029Y002259D02*
X010074Y002214D01*
X010164Y002214D01*
X010209Y002259D01*
X010029Y002259D02*
X010029Y002440D01*
X010074Y002485D01*
X010164Y002485D01*
X010209Y002440D01*
X009915Y002440D02*
X009870Y002485D01*
X009780Y002485D01*
X009735Y002440D01*
X009591Y000705D02*
X009410Y000705D01*
X009500Y000705D02*
X009500Y000435D01*
X009296Y000480D02*
X009296Y000705D01*
X009116Y000705D02*
X009116Y000480D01*
X009161Y000435D01*
X009251Y000435D01*
X009296Y000480D01*
X009001Y000480D02*
X008956Y000435D01*
X008866Y000435D01*
X008821Y000480D01*
X008821Y000660D01*
X008866Y000705D01*
X008956Y000705D01*
X009001Y000660D01*
X009001Y000480D01*
X007656Y001046D02*
X007521Y001046D01*
X007476Y001091D01*
X007476Y001181D01*
X007521Y001226D01*
X007656Y001226D01*
X007362Y001181D02*
X007362Y001046D01*
X007362Y001181D02*
X007316Y001226D01*
X007181Y001226D01*
X007181Y001046D01*
X007075Y001046D02*
X006985Y001046D01*
X007030Y001046D02*
X007030Y001316D01*
X006985Y001316D02*
X007075Y001316D01*
X007173Y000836D02*
X007173Y000566D01*
X007083Y000566D02*
X007263Y000566D01*
X007378Y000611D02*
X007423Y000566D01*
X007513Y000566D01*
X007558Y000611D01*
X007558Y000656D01*
X007513Y000701D01*
X007468Y000701D01*
X007513Y000701D02*
X007558Y000746D01*
X007558Y000791D01*
X007513Y000836D01*
X007423Y000836D01*
X007378Y000791D01*
X007173Y000836D02*
X007083Y000746D01*
X006969Y000791D02*
X006969Y000611D01*
X006924Y000566D01*
X006834Y000566D01*
X006789Y000611D01*
X006969Y000791D01*
X006924Y000836D01*
X006834Y000836D01*
X006789Y000791D01*
X006789Y000611D01*
X006674Y000566D02*
X006494Y000566D01*
X006674Y000746D01*
X006674Y000791D01*
X006629Y000836D01*
X006539Y000836D01*
X006494Y000791D01*
X006531Y001046D02*
X006441Y001046D01*
X006396Y001091D01*
X006396Y001181D01*
X006441Y001226D01*
X006531Y001226D01*
X006576Y001181D01*
X006576Y001136D01*
X006396Y001136D01*
X006281Y001226D02*
X006146Y001226D01*
X006101Y001181D01*
X006101Y001091D01*
X006146Y001046D01*
X006281Y001046D01*
X005995Y001046D02*
X005905Y001046D01*
X005950Y001046D02*
X005950Y001226D01*
X005905Y001226D01*
X005950Y001316D02*
X005950Y001361D01*
X005790Y001316D02*
X005790Y001046D01*
X005610Y001316D01*
X005610Y001046D01*
X005495Y000836D02*
X005495Y000566D01*
X005610Y000611D02*
X005655Y000656D01*
X005790Y000656D01*
X005790Y000701D02*
X005790Y000566D01*
X005655Y000566D01*
X005610Y000611D01*
X005655Y000746D02*
X005745Y000746D01*
X005790Y000701D01*
X005905Y000746D02*
X005905Y000611D01*
X005950Y000566D01*
X006085Y000566D01*
X006085Y000521D02*
X006040Y000475D01*
X005995Y000475D01*
X006085Y000521D02*
X006085Y000746D01*
X005495Y000836D02*
X005405Y000746D01*
X005315Y000836D01*
X005315Y000566D01*
X004906Y000566D02*
X004726Y000566D01*
X004816Y000566D02*
X004816Y000836D01*
X004726Y000746D01*
X004611Y000746D02*
X004521Y000566D01*
X004431Y000746D01*
X004476Y001046D02*
X004431Y001091D01*
X004476Y001046D02*
X004566Y001046D01*
X004611Y001091D01*
X004611Y001136D01*
X004566Y001181D01*
X004521Y001181D01*
X004566Y001181D02*
X004611Y001226D01*
X004611Y001271D01*
X004566Y001316D01*
X004476Y001316D01*
X004431Y001271D01*
X004726Y001316D02*
X004726Y001181D01*
X004816Y001226D01*
X004861Y001226D01*
X004906Y001181D01*
X004906Y001091D01*
X004861Y001046D01*
X004771Y001046D01*
X004726Y001091D01*
X004726Y001316D02*
X004906Y001316D01*
X005021Y001271D02*
X005066Y001316D01*
X005156Y001316D01*
X005201Y001271D01*
X005021Y001091D01*
X005066Y001046D01*
X005156Y001046D01*
X005201Y001091D01*
X005201Y001271D01*
X005021Y001271D02*
X005021Y001091D01*
X001356Y005275D02*
X001356Y005545D01*
X001536Y005545D01*
X001446Y005410D02*
X001356Y005410D01*
X001242Y005455D02*
X001242Y005275D01*
X001107Y005275D01*
X001062Y005320D01*
X001062Y005455D01*
X000959Y005320D02*
X000959Y005275D01*
X000914Y005275D01*
X000914Y005320D01*
X000959Y005320D01*
X000800Y005275D02*
X000620Y005275D01*
X000710Y005275D02*
X000710Y005545D01*
X000620Y005455D01*
X000505Y005500D02*
X000505Y005320D01*
X000460Y005275D01*
X000370Y005275D01*
X000325Y005320D01*
X000505Y005500D01*
X000460Y005545D01*
X000370Y005545D01*
X000325Y005500D01*
X000325Y005320D01*
X000670Y005775D02*
X000760Y005775D01*
X000805Y005820D01*
X000920Y005820D02*
X000965Y005775D01*
X001055Y005775D01*
X001100Y005820D01*
X001100Y005865D01*
X001055Y005910D01*
X001010Y005910D01*
X001055Y005910D02*
X001100Y005955D01*
X001100Y006000D01*
X001055Y006045D01*
X000965Y006045D01*
X000920Y006000D01*
X000805Y006000D02*
X000760Y006045D01*
X000670Y006045D01*
X000625Y006000D01*
X000625Y005820D01*
X000670Y005775D01*
D12*
X002563Y007000D02*
X003313Y007000D01*
X003315Y006961D01*
X003321Y006922D01*
X003330Y006884D01*
X003343Y006847D01*
X003360Y006811D01*
X003380Y006778D01*
X003404Y006746D01*
X003430Y006717D01*
X003459Y006691D01*
X003491Y006667D01*
X003524Y006647D01*
X003560Y006630D01*
X003597Y006617D01*
X003635Y006608D01*
X003674Y006602D01*
X003713Y006600D01*
X003752Y006602D01*
X003791Y006608D01*
X003829Y006617D01*
X003866Y006630D01*
X003902Y006647D01*
X003935Y006667D01*
X003967Y006691D01*
X003996Y006717D01*
X004022Y006746D01*
X004046Y006778D01*
X004066Y006811D01*
X004083Y006847D01*
X004096Y006884D01*
X004105Y006922D01*
X004111Y006961D01*
X004113Y007000D01*
X004863Y007000D01*
X004863Y003000D01*
X002563Y003000D01*
X002563Y007000D01*
X004241Y008721D02*
X004491Y008471D01*
X004741Y008721D02*
X004491Y008971D01*
X004472Y008989D01*
X004451Y009003D01*
X004429Y009015D01*
X004404Y009023D01*
X004379Y009027D01*
X004354Y009028D01*
X004328Y009025D01*
X004303Y009018D01*
X004280Y009008D01*
X004258Y008995D01*
X004238Y008979D01*
X004221Y008960D01*
X004207Y008938D01*
X004196Y008915D01*
X004189Y008891D01*
X004185Y008866D01*
X004184Y008840D01*
X004188Y008815D01*
X004195Y008790D01*
X004205Y008767D01*
X004219Y008745D01*
X004236Y008726D01*
X003861Y008851D02*
X003863Y008921D01*
X003869Y008991D01*
X003879Y009060D01*
X003892Y009129D01*
X003910Y009197D01*
X003931Y009264D01*
X003956Y009329D01*
X003985Y009393D01*
X004017Y009456D01*
X004053Y009516D01*
X004092Y009574D01*
X004134Y009630D01*
X004179Y009684D01*
X004227Y009735D01*
X004278Y009783D01*
X004332Y009828D01*
X004388Y009870D01*
X004446Y009909D01*
X004506Y009945D01*
X004569Y009977D01*
X004633Y010006D01*
X004698Y010031D01*
X004765Y010052D01*
X004833Y010070D01*
X004902Y010083D01*
X004971Y010093D01*
X005041Y010099D01*
X005111Y010101D01*
X005181Y010099D01*
X005251Y010093D01*
X005320Y010083D01*
X005389Y010070D01*
X005457Y010052D01*
X005524Y010031D01*
X005589Y010006D01*
X005653Y009977D01*
X005716Y009945D01*
X005776Y009909D01*
X005834Y009870D01*
X005890Y009828D01*
X005944Y009783D01*
X005995Y009735D01*
X006043Y009684D01*
X006088Y009630D01*
X006130Y009574D01*
X006169Y009516D01*
X006205Y009456D01*
X006237Y009393D01*
X006266Y009329D01*
X006291Y009264D01*
X006312Y009197D01*
X006330Y009129D01*
X006343Y009060D01*
X006353Y008991D01*
X006359Y008921D01*
X006361Y008851D01*
X006359Y008781D01*
X006353Y008711D01*
X006343Y008642D01*
X006330Y008573D01*
X006312Y008505D01*
X006291Y008438D01*
X006266Y008373D01*
X006237Y008309D01*
X006205Y008246D01*
X006169Y008186D01*
X006130Y008128D01*
X006088Y008072D01*
X006043Y008018D01*
X005995Y007967D01*
X005944Y007919D01*
X005890Y007874D01*
X005834Y007832D01*
X005776Y007793D01*
X005716Y007757D01*
X005653Y007725D01*
X005589Y007696D01*
X005524Y007671D01*
X005457Y007650D01*
X005389Y007632D01*
X005320Y007619D01*
X005251Y007609D01*
X005181Y007603D01*
X005111Y007601D01*
X005041Y007603D01*
X004971Y007609D01*
X004902Y007619D01*
X004833Y007632D01*
X004765Y007650D01*
X004698Y007671D01*
X004633Y007696D01*
X004569Y007725D01*
X004506Y007757D01*
X004446Y007793D01*
X004388Y007832D01*
X004332Y007874D01*
X004278Y007919D01*
X004227Y007967D01*
X004179Y008018D01*
X004134Y008072D01*
X004092Y008128D01*
X004053Y008186D01*
X004017Y008246D01*
X003985Y008309D01*
X003956Y008373D01*
X003931Y008438D01*
X003910Y008505D01*
X003892Y008573D01*
X003879Y008642D01*
X003869Y008711D01*
X003863Y008781D01*
X003861Y008851D01*
X005491Y008971D02*
X005741Y008721D01*
X005731Y008731D02*
X005750Y008713D01*
X005771Y008699D01*
X005793Y008687D01*
X005818Y008679D01*
X005843Y008675D01*
X005868Y008674D01*
X005894Y008677D01*
X005919Y008684D01*
X005942Y008694D01*
X005964Y008707D01*
X005984Y008723D01*
X006001Y008742D01*
X006015Y008764D01*
X006026Y008787D01*
X006033Y008811D01*
X006037Y008836D01*
X006038Y008862D01*
X006034Y008887D01*
X006027Y008912D01*
X006017Y008935D01*
X006003Y008957D01*
X005986Y008976D01*
X005991Y008971D02*
X005741Y009221D01*
X009225Y007100D02*
X009825Y007100D01*
X009825Y007600D01*
X009825Y007100D02*
X010425Y007100D01*
X010425Y004600D01*
X009825Y004600D01*
X009825Y004100D01*
X009825Y004600D02*
X009225Y004600D01*
X009225Y007100D01*
X009825Y006450D02*
X009825Y005850D01*
X009575Y005850D01*
X009575Y005950D01*
X009825Y005850D02*
X010075Y005850D01*
X009825Y005850D02*
X009825Y005600D01*
X009825Y005850D02*
X009575Y006250D01*
X010075Y006250D01*
X009825Y005850D01*
D13*
X005628Y006650D02*
X005630Y006721D01*
X005636Y006792D01*
X005646Y006863D01*
X005660Y006932D01*
X005677Y007001D01*
X005699Y007069D01*
X005724Y007136D01*
X005753Y007201D01*
X005785Y007264D01*
X005821Y007326D01*
X005860Y007385D01*
X005903Y007442D01*
X005948Y007497D01*
X005997Y007549D01*
X006048Y007598D01*
X006102Y007644D01*
X006159Y007688D01*
X006217Y007728D01*
X006278Y007764D01*
X006341Y007798D01*
X006406Y007827D01*
X006472Y007853D01*
X006540Y007876D01*
X006608Y007894D01*
X006678Y007909D01*
X006748Y007920D01*
X006819Y007927D01*
X006890Y007930D01*
X006961Y007929D01*
X007032Y007924D01*
X007103Y007915D01*
X007173Y007902D01*
X007242Y007886D01*
X007310Y007865D01*
X007377Y007841D01*
X007443Y007813D01*
X007506Y007781D01*
X007568Y007746D01*
X007628Y007708D01*
X007686Y007666D01*
X007741Y007622D01*
X007794Y007574D01*
X007844Y007523D01*
X007891Y007470D01*
X007935Y007414D01*
X007976Y007356D01*
X008014Y007295D01*
X008048Y007233D01*
X008078Y007168D01*
X008105Y007103D01*
X008129Y007035D01*
X008148Y006967D01*
X008164Y006898D01*
X008176Y006827D01*
X008184Y006757D01*
X008188Y006686D01*
X008188Y006614D01*
X008184Y006543D01*
X008176Y006473D01*
X008164Y006402D01*
X008148Y006333D01*
X008129Y006265D01*
X008105Y006197D01*
X008078Y006132D01*
X008048Y006067D01*
X008014Y006005D01*
X007976Y005944D01*
X007935Y005886D01*
X007891Y005830D01*
X007844Y005777D01*
X007794Y005726D01*
X007741Y005678D01*
X007686Y005634D01*
X007628Y005592D01*
X007568Y005554D01*
X007506Y005519D01*
X007443Y005487D01*
X007377Y005459D01*
X007310Y005435D01*
X007242Y005414D01*
X007173Y005398D01*
X007103Y005385D01*
X007032Y005376D01*
X006961Y005371D01*
X006890Y005370D01*
X006819Y005373D01*
X006748Y005380D01*
X006678Y005391D01*
X006608Y005406D01*
X006540Y005424D01*
X006472Y005447D01*
X006406Y005473D01*
X006341Y005502D01*
X006278Y005536D01*
X006217Y005572D01*
X006159Y005612D01*
X006102Y005656D01*
X006048Y005702D01*
X005997Y005751D01*
X005948Y005803D01*
X005903Y005858D01*
X005860Y005915D01*
X005821Y005974D01*
X005785Y006036D01*
X005753Y006099D01*
X005724Y006164D01*
X005699Y006231D01*
X005677Y006299D01*
X005660Y006368D01*
X005646Y006437D01*
X005636Y006508D01*
X005630Y006579D01*
X005628Y006650D01*
X006158Y007150D02*
X006658Y007150D01*
X007774Y009199D02*
X007524Y009449D01*
X007524Y009949D01*
X007774Y010199D01*
X008274Y010199D01*
X008524Y009949D01*
X008774Y010199D01*
X009274Y010199D01*
X009524Y009949D01*
X009524Y009449D01*
X009274Y009199D01*
X008774Y009199D01*
X008524Y009449D01*
X008274Y009199D01*
X007774Y009199D01*
X006642Y004607D02*
X006142Y004607D01*
X005612Y004107D02*
X005614Y004178D01*
X005620Y004249D01*
X005630Y004320D01*
X005644Y004389D01*
X005661Y004458D01*
X005683Y004526D01*
X005708Y004593D01*
X005737Y004658D01*
X005769Y004721D01*
X005805Y004783D01*
X005844Y004842D01*
X005887Y004899D01*
X005932Y004954D01*
X005981Y005006D01*
X006032Y005055D01*
X006086Y005101D01*
X006143Y005145D01*
X006201Y005185D01*
X006262Y005221D01*
X006325Y005255D01*
X006390Y005284D01*
X006456Y005310D01*
X006524Y005333D01*
X006592Y005351D01*
X006662Y005366D01*
X006732Y005377D01*
X006803Y005384D01*
X006874Y005387D01*
X006945Y005386D01*
X007016Y005381D01*
X007087Y005372D01*
X007157Y005359D01*
X007226Y005343D01*
X007294Y005322D01*
X007361Y005298D01*
X007427Y005270D01*
X007490Y005238D01*
X007552Y005203D01*
X007612Y005165D01*
X007670Y005123D01*
X007725Y005079D01*
X007778Y005031D01*
X007828Y004980D01*
X007875Y004927D01*
X007919Y004871D01*
X007960Y004813D01*
X007998Y004752D01*
X008032Y004690D01*
X008062Y004625D01*
X008089Y004560D01*
X008113Y004492D01*
X008132Y004424D01*
X008148Y004355D01*
X008160Y004284D01*
X008168Y004214D01*
X008172Y004143D01*
X008172Y004071D01*
X008168Y004000D01*
X008160Y003930D01*
X008148Y003859D01*
X008132Y003790D01*
X008113Y003722D01*
X008089Y003654D01*
X008062Y003589D01*
X008032Y003524D01*
X007998Y003462D01*
X007960Y003401D01*
X007919Y003343D01*
X007875Y003287D01*
X007828Y003234D01*
X007778Y003183D01*
X007725Y003135D01*
X007670Y003091D01*
X007612Y003049D01*
X007552Y003011D01*
X007490Y002976D01*
X007427Y002944D01*
X007361Y002916D01*
X007294Y002892D01*
X007226Y002871D01*
X007157Y002855D01*
X007087Y002842D01*
X007016Y002833D01*
X006945Y002828D01*
X006874Y002827D01*
X006803Y002830D01*
X006732Y002837D01*
X006662Y002848D01*
X006592Y002863D01*
X006524Y002881D01*
X006456Y002904D01*
X006390Y002930D01*
X006325Y002959D01*
X006262Y002993D01*
X006201Y003029D01*
X006143Y003069D01*
X006086Y003113D01*
X006032Y003159D01*
X005981Y003208D01*
X005932Y003260D01*
X005887Y003315D01*
X005844Y003372D01*
X005805Y003431D01*
X005769Y003493D01*
X005737Y003556D01*
X005708Y003621D01*
X005683Y003688D01*
X005661Y003756D01*
X005644Y003825D01*
X005630Y003894D01*
X005620Y003965D01*
X005614Y004036D01*
X005612Y004107D01*
X003400Y001900D02*
X003650Y001650D01*
X003650Y001150D01*
X003400Y000900D01*
X002900Y000900D01*
X002650Y001150D01*
X002400Y000900D01*
X001900Y000900D01*
X001650Y001150D01*
X001400Y000900D01*
X000900Y000900D01*
X000650Y001150D01*
X000650Y001650D01*
X000900Y001900D01*
X001400Y001900D01*
X001650Y001650D01*
X001900Y001900D01*
X002400Y001900D01*
X002650Y001650D01*
X002900Y001900D01*
X003400Y001900D01*
X001350Y003000D02*
X000350Y003000D01*
X000350Y005000D01*
X001350Y005000D01*
X001350Y003000D01*
X001100Y004000D02*
X000600Y004000D01*
X008200Y001700D02*
X008200Y001200D01*
X008450Y000950D01*
X008950Y000950D01*
X009200Y001200D01*
X009450Y000950D01*
X009950Y000950D01*
X010200Y001200D01*
X010200Y001700D01*
X009950Y001950D01*
X009450Y001950D01*
X009200Y001700D01*
X008950Y001950D01*
X008450Y001950D01*
X008200Y001700D01*
D14*
X003372Y008784D02*
X003372Y009111D01*
X003451Y009538D02*
X003451Y009865D01*
X003287Y009701D02*
X003614Y009701D01*
D15*
X004361Y008851D02*
X004611Y008601D01*
X005011Y008951D02*
X005211Y008751D01*
X005611Y009101D02*
X005861Y008851D01*
D16*
X009825Y005000D03*
D17*
X006486Y002222D02*
X006486Y002078D01*
X006296Y002059D01*
X006275Y001995D01*
X006244Y001935D01*
X006365Y001786D01*
X006264Y001685D01*
X006115Y001806D01*
X006055Y001775D01*
X005971Y001979D01*
X006009Y002001D01*
X006041Y002031D01*
X006065Y002068D01*
X006080Y002110D01*
X006084Y002154D01*
X006078Y002198D01*
X006062Y002239D01*
X006036Y002275D01*
X006002Y002303D01*
X005963Y002323D01*
X005920Y002333D01*
X005876Y002333D01*
X005833Y002322D01*
X005794Y002301D01*
X005761Y002272D01*
X005736Y002235D01*
X005721Y002194D01*
X005715Y002150D01*
X005721Y002107D01*
X005314Y002107D01*
X005314Y002078D02*
X005504Y002059D01*
X005525Y001995D01*
X005556Y001935D01*
X005435Y001786D01*
X005536Y001685D01*
X005685Y001806D01*
X005745Y001775D01*
X005829Y001979D01*
X005792Y002001D01*
X005760Y002030D01*
X005736Y002066D01*
X005721Y002107D01*
X005717Y002164D02*
X005314Y002164D01*
X005314Y002222D02*
X005314Y002078D01*
X005314Y002222D02*
X005504Y002241D01*
X005525Y002305D01*
X005556Y002365D01*
X005435Y002514D01*
X005536Y002615D01*
X005685Y002494D01*
X005745Y002525D01*
X005809Y002546D01*
X005828Y002736D01*
X005972Y002736D01*
X005991Y002546D01*
X006055Y002525D01*
X006115Y002494D01*
X006264Y002615D01*
X006365Y002514D01*
X006244Y002365D01*
X006275Y002305D01*
X006296Y002241D01*
X006486Y002222D01*
X006068Y002222D01*
X006083Y002164D02*
X006486Y002164D01*
X006486Y002107D02*
X006079Y002107D01*
X006053Y002049D02*
X006293Y002049D01*
X006274Y001992D02*
X005992Y001992D01*
X005989Y001934D02*
X006245Y001934D01*
X006292Y001877D02*
X006013Y001877D01*
X006037Y001819D02*
X006339Y001819D01*
X006340Y001762D02*
X006169Y001762D01*
X006240Y001704D02*
X006283Y001704D01*
X005787Y001877D02*
X005508Y001877D01*
X005555Y001934D02*
X005811Y001934D01*
X005807Y001992D02*
X005526Y001992D01*
X005507Y002049D02*
X005747Y002049D01*
X005731Y002222D02*
X005314Y002222D01*
X005517Y002280D02*
X005770Y002280D01*
X005541Y002337D02*
X006259Y002337D01*
X006268Y002395D02*
X005532Y002395D01*
X005485Y002452D02*
X006315Y002452D01*
X006362Y002510D02*
X006134Y002510D01*
X006085Y002510D02*
X005715Y002510D01*
X005666Y002510D02*
X005438Y002510D01*
X005488Y002567D02*
X005595Y002567D01*
X005811Y002567D02*
X005989Y002567D01*
X005983Y002625D02*
X005817Y002625D01*
X005823Y002682D02*
X005977Y002682D01*
X006205Y002567D02*
X006312Y002567D01*
X006283Y002280D02*
X006030Y002280D01*
X005763Y001819D02*
X005461Y001819D01*
X005460Y001762D02*
X005631Y001762D01*
X005560Y001704D02*
X005517Y001704D01*
M02*
