%
M48
M72
T01C0.0276
T02C0.0315
T03C0.0320
T04C0.0400
%
T01
X850Y3500
X850Y4500
X6392Y4107
X7392Y4107
X7408Y6650
X6408Y6650
T02
X2906Y8918
X2906Y9705
T03
X5111Y9601
X5111Y8101
X5213Y6500
X5213Y5500
X5213Y4500
X5213Y3500
X2213Y3500
X2213Y4500
X2213Y5500
X2213Y6500
T04
X1150Y1450
X2150Y1350
X3150Y1450
X8630Y1450
X9770Y1450
X9825Y3850
X9825Y7850
X9094Y9699
X7954Y9699
M30
